<svg xmlns="http://www.w3.org/2000/svg" xml:space="preserve" width="400" height="400" style="fill-rule:evenodd" viewBox="0 0 112.889 112.889"><path style="fill:#ff0;fill-opacity:1;stroke:none;stroke-width:.28222221px;stroke-linecap:butt;stroke-linejoin:miter;stroke-opacity:1" d="M6.518 45.82S.3 98.893 56.132 106.116c55.83 7.223 50.112-63.205 49.51-64.108-.602-.903-46.952-17.456-48.156-16.553-.968.726-34.306 10.376-46.548 16.605-2.976 1.514-4.705 2.826-4.42 3.758Z" transform="translate(1.693 -1.92)"/><path style="fill:#ff0;fill-opacity:1;stroke:none;stroke-width:.28222221px;stroke-linecap:butt;stroke-linejoin:miter;stroke-opacity:1" d="M6.518 46.384s-7.571-28.791-1.853-31.8c5.719-3.01 30.399 16.553 35.214 16.402 4.816-.15-33.361 15.398-33.361 15.398zM105.66 42.076s3.336-34.175-.125-29.961c-3.461 4.213-23.476 20.316-31.903 18.36-8.428-1.957 32.029 11.6 32.029 11.6z" transform="translate(1.693 -1.92)"/><ellipse style="fill:#000;fill-opacity:1;stroke:none;stroke-width:.15371417;stroke-opacity:1" cx="78.442" cy="57.095" rx="9.33" ry="9.029"/><ellipse style="fill:#f0f;fill-opacity:1;stroke:none;stroke-width:.21340092;stroke-opacity:1" cx="41.573" cy="60.105" rx="18.811" ry="18.058"/><ellipse style="fill:#000;fill-opacity:1;fill-rule:evenodd;stroke:none;stroke-width:.15371418;stroke-opacity:1" cx="42.927" cy="60.707" rx="9.33" ry="9.029"/><path style="fill:#000;fill-opacity:1;stroke:#000;stroke-width:.28222221px;stroke-linecap:butt;stroke-linejoin:miter;stroke-opacity:1" d="M68.897 92.229S85.52 74.296 82.25 69.187c-3.27-5.109-17.066 12.809-17.066 12.809s-18.398-6.064-19.87-2.86c-1.474 3.203 15.182 16.1 23.584 13.093z"/></svg>